<svg width="24" height="24" viewBox="0 0 24 24" fill="none" xmlns="http://www.w3.org/2000/svg">
<path d="M21.1833 2.93104C20.4665 2.80721 19.7406 2.74347 19.0133 2.74048C16.5316 2.73844 14.1018 3.45214 12.0133 4.79651C9.91942 3.46979 7.48992 2.77361 5.01327 2.79063C4.28591 2.79362 3.56007 2.85736 2.84327 2.98119C2.60847 3.02179 2.39585 3.14513 2.24368 3.329C2.09151 3.51287 2.0098 3.74519 2.01327 3.98413V16.0194C2.01113 16.1668 2.04139 16.3128 2.10192 16.4471C2.16244 16.5814 2.25173 16.7007 2.36344 16.7964C2.47515 16.8922 2.60653 16.9621 2.74822 17.0011C2.88992 17.0402 3.03846 17.0474 3.18327 17.0223C4.61629 16.7735 6.08447 16.8148 7.50133 17.1438C8.9182 17.4727 10.2551 18.0828 11.4333 18.9379L11.5533 19.0081H11.6633C11.7742 19.0545 11.8931 19.0784 12.0133 19.0784C12.1334 19.0784 12.2524 19.0545 12.3633 19.0081H12.4733L12.5933 18.9379C13.7632 18.0637 15.0963 17.4339 16.5134 17.0859C17.9306 16.7379 19.4029 16.6787 20.8433 16.912C20.9881 16.9371 21.1366 16.9298 21.2783 16.8908C21.42 16.8517 21.5514 16.7818 21.6631 16.6861C21.7748 16.5903 21.8641 16.4711 21.9246 16.3368C21.9851 16.2025 22.0154 16.0564 22.0133 15.9091V3.8738C22.0029 3.64529 21.9149 3.42721 21.7639 3.25573C21.6129 3.08426 21.4081 2.96969 21.1833 2.93104ZM11.0133 16.2601C9.16315 15.2839 7.10379 14.7745 5.01327 14.7757C4.68327 14.7757 4.35327 14.7757 4.01327 14.7757V4.74636C4.34632 4.72711 4.68021 4.72711 5.01327 4.74636C7.14665 4.744 9.23348 5.37188 11.0133 6.55165V16.2601ZM20.0133 14.8159C19.6733 14.8159 19.3433 14.8159 19.0133 14.8159C16.9227 14.8146 14.8634 15.324 13.0133 16.3002V6.55165C14.7931 5.37188 16.8799 4.744 19.0133 4.74636C19.3463 4.72711 19.6802 4.72711 20.0133 4.74636V14.8159ZM21.1833 18.9781C20.4665 18.8542 19.7406 18.7905 19.0133 18.7875C16.5316 18.7855 14.1018 19.4992 12.0133 20.8435C9.92478 19.4992 7.4949 18.7855 5.01327 18.7875C4.28591 18.7905 3.56007 18.8542 2.84327 18.9781C2.7131 18.9988 2.58829 19.0451 2.47603 19.1144C2.36377 19.1836 2.26627 19.2745 2.18913 19.3816C2.112 19.4888 2.05675 19.6103 2.02657 19.7389C1.99639 19.8676 1.99187 20.001 2.01327 20.1314C2.06409 20.3919 2.21576 20.6215 2.43506 20.77C2.65436 20.9185 2.92341 20.9738 3.18327 20.9238C4.61629 20.6749 6.08447 20.7162 7.50133 21.0452C8.9182 21.3742 10.2551 21.9842 11.4333 22.8394C11.6026 22.9603 11.8054 23.0253 12.0133 23.0253C12.2212 23.0253 12.4239 22.9603 12.5933 22.8394C13.7714 21.9842 15.1083 21.3742 16.5252 21.0452C17.9421 20.7162 19.4102 20.6749 20.8433 20.9238C21.1031 20.9738 21.3722 20.9185 21.5915 20.77C21.8108 20.6215 21.9624 20.3919 22.0133 20.1314C22.0347 20.001 22.0301 19.8676 22 19.7389C21.9698 19.6103 21.9145 19.4888 21.8374 19.3816C21.7603 19.2745 21.6628 19.1836 21.5505 19.1144C21.4382 19.0451 21.3134 18.9988 21.1833 18.9781Z" fill="#AEAEB1"/>
</svg>
