<svg width="21" height="21" viewBox="0 0 21 21" fill="none" xmlns="http://www.w3.org/2000/svg">
<path d="M6.02819 9.6366C5.8304 9.6366 5.63706 9.69542 5.47262 9.80563C5.30817 9.91583 5.17999 10.0725 5.10431 10.2557C5.02862 10.439 5.00881 10.6407 5.0474 10.8352C5.08599 11.0298 5.18123 11.2085 5.32108 11.3487C5.46093 11.489 5.63911 11.5845 5.8331 11.6232C6.02708 11.6619 6.22814 11.642 6.41087 11.5661C6.5936 11.4902 6.74977 11.3617 6.85965 11.1967C6.96954 11.0318 7.02818 10.8379 7.02818 10.6395C7.02818 10.3735 6.92283 10.1184 6.73529 9.93036C6.54776 9.74227 6.2934 9.6366 6.02819 9.6366ZM10.0282 9.6366C9.8304 9.6366 9.63706 9.69542 9.47261 9.80563C9.30817 9.91583 9.17999 10.0725 9.10431 10.2557C9.02862 10.439 9.00881 10.6407 9.0474 10.8352C9.08599 11.0298 9.18123 11.2085 9.32108 11.3487C9.46093 11.489 9.63911 11.5845 9.83309 11.6232C10.0271 11.6619 10.2281 11.642 10.4109 11.5661C10.5936 11.4902 10.7498 11.3617 10.8597 11.1967C10.9695 11.0318 11.0282 10.8379 11.0282 10.6395C11.0282 10.3735 10.9228 10.1184 10.7353 9.93036C10.5478 9.74227 10.2934 9.6366 10.0282 9.6366ZM14.0282 9.6366C13.8304 9.6366 13.6371 9.69542 13.4726 9.80563C13.3082 9.91583 13.18 10.0725 13.1043 10.2557C13.0286 10.439 13.0088 10.6407 13.0474 10.8352C13.086 11.0298 13.1812 11.2085 13.3211 11.3487C13.4609 11.489 13.6391 11.5845 13.8331 11.6232C14.0271 11.6619 14.2281 11.642 14.4109 11.5661C14.5936 11.4902 14.7498 11.3617 14.8597 11.1967C14.9695 11.0318 15.0282 10.8379 15.0282 10.6395C15.0282 10.3735 14.9228 10.1184 14.7353 9.93036C14.5478 9.74227 14.2934 9.6366 14.0282 9.6366ZM10.0282 0.610168C8.71497 0.610168 7.41461 0.869586 6.20135 1.37361C4.98809 1.87763 3.8857 2.61639 2.95712 3.5477C1.08175 5.42858 0.0281864 7.97959 0.0281864 10.6395C0.0194442 12.9555 0.818979 15.2014 2.28819 16.9881L0.288186 18.994C0.149429 19.135 0.0554325 19.3141 0.0180584 19.5087C-0.0193158 19.7033 0.0016069 19.9046 0.0781863 20.0872C0.161244 20.2677 0.29589 20.4193 0.465033 20.5229C0.634176 20.6264 0.830187 20.6773 1.02819 20.6689H10.0282C12.6803 20.6689 15.2239 19.6122 17.0993 17.7314C18.9746 15.8505 20.0282 13.2995 20.0282 10.6395C20.0282 7.97959 18.9746 5.42858 17.0993 3.5477C15.2239 1.66683 12.6803 0.610168 10.0282 0.610168ZM10.0282 18.663H3.43819L4.36819 17.7303C4.55444 17.5424 4.65898 17.2882 4.65898 17.0232C4.65898 16.7583 4.55444 16.5041 4.36819 16.3162C3.05877 15.0044 2.24336 13.2778 2.06088 11.4307C1.87839 9.5835 2.34013 7.73003 3.36741 6.18602C4.3947 4.64201 5.92398 3.503 7.6947 2.96303C9.46542 2.42307 11.368 2.51555 13.0784 3.22474C14.7888 3.93392 16.201 5.21593 17.0746 6.85234C17.9482 8.48875 18.2291 10.3783 17.8693 12.1991C17.5096 14.0199 16.5315 15.6593 15.1017 16.8379C13.672 18.0166 11.8789 18.6616 10.0282 18.663Z" fill="#AEAEB1"/>
</svg>
